<svg xmlns="http://www.w3.org/2000/svg" viewBox="0 0 480 360" role="img"><defs><linearGradient id="g" x1="0" y1="0" x2="1" y2="1"><stop offset="0" stop-color="#e8f1ee"/><stop offset="1" stop-color="#c9dfd8"/></linearGradient></defs><rect width="480" height="360" fill="url(#g)"/><ellipse cx="240" cy="300" rx="130" ry="14" fill="#000" opacity=".10"/><path d="M308 170h22a34 34 0 0 1 0 68h-22" fill="none" stroke="#2f6f62" stroke-width="16"/><path d="M160 130h156v128a40 40 0 0 1-40 40h-76a40 40 0 0 1-40-40z" fill="#3f8f7f"/><path d="M160 130h156v36H160z" fill="#f4efe6"/><path d="M160 166c26 14 52-12 78 0s52 12 78 0" fill="none" stroke="#f4efe6" stroke-width="10"/><path d="M215 80c-10 12 10 18 0 32M250 72c-10 12 10 18 0 32" stroke="#2f6f62" stroke-width="5" fill="none" stroke-linecap="round" opacity=".6"/></svg>